<?xml version="1.0" encoding="UTF-8"?><svg id="Layer_1" xmlns="http://www.w3.org/2000/svg" viewBox="0 0 1920 1080"><path d="m451.246,625.765c14.688-8.467,23.905-21.428,26.497-33.409l57.198-.115c-3.514,34.446-22.753,62.267-56.738,81.91-61.173,35.31-122.922,16.071-153.681-37.268s-15.898-116.816,40.667-149.419c52.245-30.183,114.224-12.039,145.444,41.992,4.32,7.488,7.776,15.092,10.253,22.695l-127.069,73.327c17.568,14.688,37.729,11.636,57.429.288Zm-4.666-84.156c-17.684-17.453-38.132-15.668-54.261-6.394-20.391,11.751-28.225,29.665-22.695,50.805l76.956-44.411Z" fill="#1d4c6c"/><path d="m660.224,686.477l-38.42-54.549-38.42,54.549h-71.08l73.96-104.95-71.484-101.667h71.08l35.943,51.265,35.943-51.265h71.08l-71.484,101.667,73.96,104.95h-71.08Z" fill="#1d4c6c"/><path d="m847.199,539.362v-59.56h-42.568v-57.832l-61.979,18.605v171.941c0,57.832,23.559,82.255,104.547,73.961v-56.219c-27.303,1.67-42.568,0-42.568-17.741v-73.154h42.568Z" fill="#1d4c6c"/><path d="m1002.205,475.712v70.274c-25.633-4.147-61.979,6.221-61.979,47.118v93.372h-61.979v-206.675h61.979v36.807c8.237-27.706,35.943-40.897,61.979-40.897Z" fill="#1d4c6c"/><path d="m1232.093,479.802v206.617h-61.979v-19.412c-13.652,15.725-33.87,25.23-61.576,25.23-54.146,0-98.787-47.521-98.787-109.098s44.641-109.098,98.787-109.098c27.706,0,47.925,9.504,61.576,25.23v-19.412h61.979v-.057Zm-61.979,103.337c0-30.99-20.679-50.401-49.192-50.401s-49.192,19.412-49.192,50.401,20.679,50.401,49.192,50.401,49.192-19.412,49.192-50.401Z" fill="#1d4c6c"/><path d="m1301.215,384.759h61.979v301.66h-61.979v-301.66Z" fill="#1d4c6c"/><path d="m1388.021,424.447c0-20.276,16.935-37.211,37.211-37.211s37.211,16.935,37.211,37.211-16.935,37.211-37.211,37.211c-20.276,0-37.211-16.935-37.211-37.211Zm6.163,55.355h61.979v206.617h-61.979v-206.617Z" fill="#1d4c6c"/><path d="m1587.611,450.886v-59.503c-68.604-4.147-100.4,30.586-100.4,88.419v206.617h61.979v-147.057h38.42v-59.56h-38.42c0-23.962,15.264-30.99,38.42-28.916Z" fill="#1d4c6c"/><path d="m1734.898,625.765c14.688-8.467,23.905-21.428,26.497-33.409l57.198-.115c-3.456,34.446-22.753,62.267-56.738,81.91-61.173,35.31-122.922,16.071-153.681-37.268-30.759-53.339-15.898-116.816,40.667-149.419,52.245-30.183,114.224-12.039,145.444,41.992,4.32,7.488,7.776,15.092,10.253,22.695l-127.069,73.327c17.569,14.688,37.787,11.636,57.429.288Zm-4.666-84.156c-17.684-17.453-38.132-15.668-54.261-6.394-20.391,11.751-28.225,29.665-22.695,50.805l76.956-44.411Z" fill="#1d4c6c"/><path d="m345.374,755.887v33.755h-4.435v-6.624c-2.822,4.55-7.603,7.431-13.652,7.431-9.504,0-17.396-7.719-17.396-17.684s7.891-17.684,17.396-17.684c5.991,0,10.829,2.88,13.652,7.431v-6.624h4.435Zm-4.493,16.877c0-7.488-5.818-13.364-13.306-13.364s-13.306,5.875-13.306,13.364,5.818,13.364,13.306,13.364,13.306-5.875,13.306-13.364Z" fill="#808285"/><path d="m407.18,772.764c0,9.965-7.891,17.684-17.396,17.684-5.991,0-10.829-2.88-13.652-7.431v20.103h-4.435v-47.233h4.435v6.624c2.822-4.55,7.603-7.431,13.652-7.431,9.504,0,17.396,7.719,17.396,17.684Zm-4.435,0c0-7.488-5.818-13.364-13.306-13.364s-13.306,5.875-13.306,13.364,5.818,13.364,13.306,13.364,13.306-5.875,13.306-13.364Z" fill="#808285"/><path d="m429.703,755.368v4.32c-5.415,0-10.656,2.823-10.656,11.232v18.778h-4.435v-33.755h4.435v5.587c2.362-4.781,6.336-6.163,10.656-6.163Z" fill="#808285"/><path d="m431.776,772.764c0-9.965,7.891-17.684,17.741-17.684s17.741,7.719,17.741,17.684-7.891,17.684-17.741,17.684-17.741-7.661-17.741-17.684Zm31.047,0c0-7.488-5.818-13.364-13.306-13.364s-13.306,5.875-13.306,13.364,5.818,13.364,13.306,13.364,13.306-5.875,13.306-13.364Z" fill="#808285"/><path d="m508.156,755.887v32.372c0,10.253-8.237,15.668-16.935,15.668-7.776,0-13.364-2.995-16.013-8.237l3.917-2.246c1.67,3.456,4.781,6.163,12.096,6.163,7.834,0,12.5-4.435,12.5-11.348v-5.242c-2.822,4.55-7.603,7.431-13.652,7.431-9.504,0-17.396-7.719-17.396-17.684s7.891-17.684,17.396-17.684c5.991,0,10.829,2.88,13.652,7.431v-6.624h4.435Zm-4.435,16.877c0-7.488-5.818-13.364-13.306-13.364s-13.306,5.875-13.306,13.364,5.818,13.364,13.306,13.364,13.306-5.875,13.306-13.364Z" fill="#808285"/><path d="m532.752,755.368v4.32c-5.415,0-10.656,2.823-10.656,11.232v18.778h-4.435v-33.755h4.435v5.587c2.304-4.781,6.336-6.163,10.656-6.163Z" fill="#808285"/><path d="m570.251,755.887v33.755h-4.435v-6.624c-2.822,4.55-7.603,7.431-13.652,7.431-9.504,0-17.396-7.719-17.396-17.684s7.891-17.684,17.396-17.684c5.991,0,10.829,2.88,13.652,7.431v-6.624h4.435Zm-4.435,16.877c0-7.488-5.818-13.364-13.306-13.364s-13.306,5.875-13.306,13.364,5.818,13.364,13.306,13.364,13.306-5.875,13.306-13.364Z" fill="#808285"/><path d="m628.313,768.617v21.082h-4.435v-21.082c0-5.991-3.456-9.159-8.237-9.159-5.184,0-9.389,3.168-9.389,11.52v18.721h-4.435v-21.082c0-5.991-3.11-9.159-7.891-9.159-4.839,0-9.735,3.168-9.735,11.52v18.721h-4.435v-33.755h4.435v4.954c2.65-4.09,6.279-5.76,10.311-5.76,4.723,0,8.352,2.246,10.253,6.163,2.477-4.205,6.624-6.163,10.944-6.163,7.431-.058,12.615,5.011,12.615,13.479Z" fill="#808285"/><path d="m651.815,772.764c0-9.965,7.891-17.684,17.741-17.684s17.741,7.719,17.741,17.684-7.891,17.684-17.741,17.684-17.741-7.661-17.741-17.684Zm31.047,0c0-7.488-5.818-13.364-13.306-13.364s-13.306,5.875-13.306,13.364,5.818,13.364,13.306,13.364,13.306-5.875,13.306-13.364Z" fill="#808285"/><path d="m700.546,754.562v1.325h9.735v4.32h-9.735v29.434h-4.435v-29.434h-5.76v-4.32h5.76v-1.325c0-8.755,5.069-13.652,14.17-12.96v4.32c-6.567-.576-9.735,2.131-9.735,8.64Z" fill="#808285"/><path d="m309.142,846.494c0-13.882,10.311-24.596,24.596-24.596,8.583,0,16.128,4.263,20.276,10.944l-9.331,5.415c-2.074-3.629-6.163-5.818-10.944-5.818-8.352,0-13.767,5.587-13.767,14.055s5.415,14.055,13.767,14.055c4.781,0,8.928-2.189,10.944-5.818l9.331,5.415c-4.032,6.682-11.636,10.944-20.276,10.944-14.228-.058-24.596-10.714-24.596-24.596Z" fill="#c73047"/><path d="m391.801,849.374v20.737h-10.138v-19.239c0-4.205-2.65-6.163-5.875-6.163-3.687,0-6.279,2.189-6.279,6.97v18.433h-10.138v-47.233h10.138v16.647c1.843-2.477,5.184-4.09,9.677-4.09,6.797-.058,12.615,4.839,12.615,13.94Z" fill="#c73047"/><path d="m397.734,827.313c0-3.283,2.765-6.048,6.048-6.048s6.048,2.765,6.048,6.048-2.765,6.048-6.048,6.048-6.048-2.765-6.048-6.048Zm.979,9.043h10.138v33.755h-10.138v-33.755Z" fill="#c73047"/><path d="m416.282,820.804h10.138v49.249h-10.138v-49.249Z" fill="#c73047"/><path d="m468.469,822.877v47.233h-10.138v-3.168c-2.246,2.592-5.53,4.09-10.08,4.09-8.871,0-16.128-7.776-16.128-17.799s7.315-17.799,16.128-17.799c4.551,0,7.834,1.555,10.08,4.09v-16.647h10.138Zm-10.138,30.356c0-5.069-3.398-8.237-8.007-8.237s-8.007,3.168-8.007,8.237,3.398,8.237,8.007,8.237,8.007-3.168,8.007-8.237Z" fill="#c73047"/><path d="m496.117,835.665v11.463c-4.205-.691-10.138,1.037-10.138,7.719v15.264h-10.138v-33.755h10.138v5.991c1.382-4.493,5.933-6.682,10.138-6.682Z" fill="#c73047"/><path d="m517.027,861.989c2.765,0,5.127-1.094,6.451-2.592l8.122,4.666c-3.283,4.608-8.295,6.97-14.688,6.97-11.52,0-18.721-7.776-18.721-17.799s7.315-17.799,17.972-17.799c9.85,0,17.165,7.603,17.165,17.799,0,1.44-.115,2.765-.403,4.032h-23.962c1.21,3.514,4.32,4.723,8.064,4.723Zm6.163-12.269c-1.094-3.917-4.09-5.357-7.143-5.357-3.859,0-6.394,1.901-7.373,5.357h14.516Z" fill="#c73047"/><path d="m571.403,849.374v20.737h-10.138v-19.239c0-4.205-2.65-6.163-5.875-6.163-3.687,0-6.279,2.189-6.279,6.97v18.433h-10.138v-33.755h10.138v3.168c1.843-2.477,5.184-4.09,9.677-4.09,6.797-.058,12.615,4.839,12.615,13.94Z" fill="#c73047"/><path d="m582.405,842.75h-8.122l2.707-19.93h10.829l-5.415,19.93Z" fill="#c73047"/><path d="m613.97,859.973c0,7.776-6.739,11.06-14.055,11.06-6.739,0-11.866-2.592-14.516-8.007l8.755-5.011c.864,2.592,2.765,3.975,5.76,3.975,2.419,0,3.629-.749,3.629-2.074,0-3.687-16.589-1.728-16.589-13.421,0-7.373,6.221-11.06,13.248-11.06,5.472,0,10.311,2.419,13.191,7.2l-8.64,4.666c-.922-1.728-2.304-2.995-4.551-2.995-1.728,0-2.822.691-2.822,1.901,0,3.859,16.589,1.267,16.589,13.767Z" fill="#c73047"/><path d="m683.841,870.111h-10.829v-27.476l-12.212,20.045h-1.21l-12.212-20.045v27.476h-10.829v-47.233h10.829l12.845,20.967,12.845-20.967h10.829v47.233h-.058Z" fill="#c73047"/><path d="m690.58,827.313c0-3.283,2.765-6.048,6.048-6.048s6.048,2.765,6.048,6.048-2.765,6.048-6.048,6.048-6.048-2.765-6.048-6.048Zm1.037,9.043h10.138v33.755h-10.138v-33.755Z" fill="#c73047"/><path d="m729.404,835.665v11.463c-4.205-.691-10.138,1.037-10.138,7.719v15.264h-10.138v-33.755h10.138v5.991c1.382-4.493,5.875-6.682,10.138-6.682Z" fill="#c73047"/><path d="m767.767,836.356v33.755h-10.138v-3.168c-2.246,2.592-5.53,4.09-10.08,4.09-8.871,0-16.128-7.776-16.128-17.799s7.315-17.799,16.128-17.799c4.55,0,7.834,1.555,10.08,4.09v-3.168h10.138Zm-10.138,16.877c0-5.069-3.398-8.237-8.007-8.237s-8.007,3.168-8.007,8.237,3.398,8.237,8.007,8.237,8.007-3.168,8.007-8.237Z" fill="#c73047"/><path d="m773.469,853.234c0-10.08,7.603-17.799,17.914-17.799,6.567,0,12.327,3.456,15.264,8.64l-8.871,5.127c-1.152-2.362-3.571-3.802-6.567-3.802-4.378,0-7.603,3.168-7.603,7.834s3.226,7.834,7.603,7.834c2.995,0,5.472-1.44,6.567-3.802l8.871,5.069c-2.88,5.242-8.64,8.698-15.264,8.698-10.253,0-17.914-7.776-17.914-17.799Z" fill="#c73047"/><path d="m810.68,820.804h10.138v49.249h-10.138v-49.249Z" fill="#c73047"/><path d="m845.356,861.989c2.765,0,5.127-1.094,6.451-2.592l8.122,4.666c-3.283,4.608-8.295,6.97-14.688,6.97-11.52,0-18.721-7.776-18.721-17.799s7.315-17.799,17.972-17.799c9.85,0,17.165,7.603,17.165,17.799,0,1.44-.115,2.765-.403,4.032h-23.962c1.267,3.514,4.378,4.723,8.064,4.723Zm6.221-12.269c-1.094-3.917-4.09-5.357-7.143-5.357-3.859,0-6.394,1.901-7.373,5.357h14.516Z" fill="#c73047"/><path d="m921.736,822.877v47.233h-8.122l-18.202-25.633v25.633h-10.829v-47.233h8.122l18.202,25.633v-25.633h10.829Z" fill="#c73047"/><path d="m946.62,861.989c2.765,0,5.127-1.094,6.451-2.592l8.122,4.666c-3.283,4.608-8.295,6.97-14.688,6.97-11.52,0-18.721-7.776-18.721-17.799s7.315-17.799,17.972-17.799c9.85,0,17.165,7.603,17.165,17.799,0,1.44-.115,2.765-.403,4.032h-23.962c1.267,3.514,4.378,4.723,8.064,4.723Zm6.221-12.269c-1.094-3.917-4.09-5.357-7.143-5.357-3.859,0-6.394,1.901-7.373,5.357h14.516Z" fill="#c73047"/><path d="m980.432,846.091v11.924c0,2.88,2.477,3.168,6.97,2.88v9.159c-13.248,1.325-17.05-2.65-17.05-12.096v-11.924h-5.415v-9.735h5.415v-6.394l10.138-3.053v9.447h6.97v9.735h-7.027v.058Z" fill="#c73047"/><path d="m1041.72,836.356l-10.829,33.755h-9.447l-5.415-18.029-5.415,18.029h-9.447l-10.829-33.755h10.829l4.839,18.087,5.242-18.087h9.447l5.242,18.087,4.839-18.087h10.944Z" fill="#c73047"/><path d="m1042.757,853.234c0-10.08,7.949-17.799,17.914-17.799s17.914,7.776,17.914,17.799-7.949,17.799-17.914,17.799-17.914-7.776-17.914-17.799Zm25.633,0c0-4.781-3.398-7.949-7.776-7.949s-7.776,3.168-7.776,7.949,3.398,7.949,7.776,7.949,7.776-3.168,7.776-7.949Z" fill="#c73047"/><path d="m1104.506,835.665v11.463c-4.205-.691-10.138,1.037-10.138,7.719v15.264h-10.138v-33.755h10.138v5.991c1.382-4.493,5.875-6.682,10.138-6.682Z" fill="#c73047"/><path d="m1130.139,870.111l-10.829-14.919v14.919h-10.138v-47.233h10.138v28.282l10.138-14.804h11.808l-12.269,16.877,12.615,16.877h-11.463Z" fill="#c73047"/><path d="m1199.03,822.877v47.233h-10.829v-18.778h-14.861v18.778h-10.829v-47.233h10.829v18.087h14.861v-18.087h10.829Z" fill="#c73047"/><path d="m1205.078,853.234c0-10.08,7.949-17.799,17.914-17.799s17.914,7.776,17.914,17.799-7.949,17.799-17.914,17.799-17.914-7.776-17.914-17.799Zm25.633,0c0-4.781-3.398-7.949-7.776-7.949s-7.776,3.168-7.776,7.949,3.398,7.949,7.776,7.949,7.776-3.168,7.776-7.949Z" fill="#c73047"/><path d="m1272.127,859.973c0,7.776-6.739,11.06-14.055,11.06-6.739,0-11.866-2.592-14.516-8.007l8.755-5.011c.864,2.592,2.765,3.975,5.76,3.975,2.419,0,3.629-.749,3.629-2.074,0-3.687-16.589-1.728-16.589-13.421,0-7.373,6.221-11.06,13.248-11.06,5.472,0,10.311,2.419,13.191,7.2l-8.64,4.666c-.922-1.728-2.304-2.995-4.55-2.995-1.728,0-2.823.691-2.823,1.901-.058,3.859,16.589,1.267,16.589,13.767Z" fill="#c73047"/><path d="m1313.83,853.234c0,10.08-7.315,17.799-16.128,17.799-4.55,0-7.834-1.555-10.08-4.09v16.647h-10.138v-47.233h10.138v3.168c2.246-2.592,5.53-4.09,10.08-4.09,8.813-.058,16.128,7.719,16.128,17.799Zm-10.138,0c0-5.069-3.398-8.237-8.007-8.237s-8.007,3.168-8.007,8.237,3.398,8.237,8.007,8.237,8.007-3.168,8.007-8.237Z" fill="#c73047"/><path d="m1318.554,827.313c0-3.283,2.765-6.048,6.048-6.048s6.048,2.765,6.048,6.048-2.765,6.048-6.048,6.048-6.048-2.765-6.048-6.048Zm.979,9.043h10.138v33.755h-10.138v-33.755Z" fill="#c73047"/><path d="m1349.946,846.091v11.924c0,2.88,2.477,3.168,6.97,2.88v9.159c-13.248,1.325-17.05-2.65-17.05-12.096v-11.924h-5.415v-9.735h5.415v-6.394l10.138-3.053v9.447h6.97v9.735h-7.027v.058Z" fill="#c73047"/><path d="m1396.604,836.356v33.755h-10.138v-3.168c-2.247,2.592-5.53,4.09-10.08,4.09-8.871,0-16.128-7.776-16.128-17.799s7.315-17.799,16.128-17.799c4.551,0,7.834,1.555,10.08,4.09v-3.168h10.138Zm-10.138,16.877c0-5.069-3.398-8.237-8.007-8.237s-8.007,3.168-8.007,8.237,3.398,8.237,8.007,8.237,8.007-3.168,8.007-8.237Z" fill="#c73047"/><path d="m1403.977,820.804h10.138v49.249h-10.138v-49.249Z" fill="#c73047"/><path d="m1447.409,859.973c0,7.776-6.739,11.06-14.055,11.06-6.739,0-11.866-2.592-14.516-8.007l8.755-5.011c.864,2.592,2.765,3.975,5.76,3.975,2.419,0,3.629-.749,3.629-2.074,0-3.687-16.589-1.728-16.589-13.421,0-7.373,6.221-11.06,13.248-11.06,5.472,0,10.311,2.419,13.191,7.2l-8.64,4.666c-.922-1.728-2.304-2.995-4.551-2.995-1.728,0-2.822.691-2.822,1.901,0,3.859,16.589,1.267,16.589,13.767Z" fill="#c73047"/><path d="m609.477,327.619l-4.666-53.627c-1.037-11.866-11.52-20.679-23.386-19.642l-53.627,4.666c-11.866,1.037-20.679,11.52-19.642,23.386l2.304,26.554c-.346.23-.691.518-1.037.806l-41.243,34.561c-4.378,3.687-7.085,8.871-7.603,14.631s1.267,11.348,4.954,15.725l34.561,41.243c5.991,7.143,15.668,9.389,23.905,6.394,2.304-.864,4.493-2.074,6.451-3.744l41.243-34.619c9.101-7.661,10.311-21.313,2.65-30.414l-1.094-1.267,16.474-1.44c1.901-.173,3.744-.576,5.472-1.21,9.101-3.053,15.149-12.039,14.285-22.004Zm-51.438-31.508c4.954-.403,9.274,3.226,9.735,8.179.403,4.954-3.226,9.274-8.179,9.735-4.954.403-9.274-3.226-9.735-8.179-.403-4.954,3.283-9.274,8.179-9.735Zm-24.25-20.333c4.954-.403,9.274,3.226,9.735,8.179.403,4.954-3.226,9.274-8.179,9.735-4.954.403-9.274-3.226-9.735-8.179-.403-4.954,3.226-9.331,8.179-9.735Zm33.351,102.761l-41.243,34.619c-6.048,5.069-15.092,4.263-20.161-1.786l-34.561-41.243c-2.419-2.938-3.629-6.624-3.283-10.426s2.131-7.258,5.011-9.735l41.243-34.619c1.325-1.094,2.765-1.901,4.263-2.477,5.472-2.016,11.866-.461,15.84,4.263l34.561,41.243c5.126,6.106,4.378,15.092-1.67,20.161Zm16.762-44.18c-4.954.403-9.274-3.226-9.735-8.179-.403-4.954,3.226-9.274,8.179-9.735,4.954-.403,9.274,3.226,9.735,8.179.403,4.954-3.226,9.331-8.179,9.735Z" fill="#26c2eb"/><path d="m495.311,355.786c-3.168-3.802-8.813-4.263-12.615-1.094-3.802,3.168-4.263,8.813-1.094,12.615,3.168,3.802,8.813,4.263,12.615,1.094,3.802-3.168,4.263-8.871,1.094-12.615Z" fill="#26c2eb"/><path d="m509.711,372.951c-3.168-3.802-8.813-4.263-12.615-1.094-3.802,3.168-4.263,8.813-1.094,12.615,3.168,3.802,8.813,4.263,12.615,1.094,3.802-3.168,4.32-8.813,1.094-12.615Z" fill="#26c2eb"/><path d="m511.497,389.022c-3.802,3.168-4.263,8.813-1.094,12.615,3.168,3.802,8.813,4.263,12.615,1.094,3.802-3.168,4.263-8.813,1.094-12.615-3.168-3.802-8.813-4.32-12.615-1.094Z" fill="#26c2eb"/><path d="m528.547,339.6c3.802-3.168,4.263-8.813,1.094-12.615-3.168-3.802-8.813-4.263-12.615-1.094-3.802,3.168-4.263,8.813-1.094,12.615,3.168,3.744,8.813,4.263,12.615,1.094Z" fill="#26c2eb"/><path d="m544.1,344.093c-3.168-3.802-8.813-4.263-12.615-1.094-3.802,3.168-4.263,8.813-1.094,12.615,3.168,3.802,8.813,4.263,12.615,1.094,3.744-3.168,4.263-8.813,1.094-12.615Z" fill="#26c2eb"/><path d="m545.885,360.164c-3.802,3.168-4.263,8.813-1.094,12.615,3.168,3.802,8.813,4.263,12.615,1.094,3.802-3.168,4.263-8.813,1.094-12.615-3.168-3.744-8.871-4.263-12.615-1.094Z" fill="#26c2eb"/><path d="m430.394,348.125c35.137-25.172,64.053-65.608,51.438-71.829-4.723,5.818-20.909,24.538-40.782,36.347,0,0,23.847-20.794,36.116-37.153,10.656-14.228,17.799-34.849,7.546-36.75-8.813,10.714-29.434,34.676-46.024,44.987,0,0,18.375-18.778,39.4-44.296,9.619-10.887,29.607-49.941,8.986-38.766-48.328,25.863-97.692,81.161-84.502,88.246,10.541,5.645,27.361,27.706,21.601,51.093-16.82-20.794-32.084-30.932-45.448-29.953-5.53.403-10.483,1.44-15.264,3.168-8.583,3.11-14.804,8.007-20.852,12.73s-11.693,9.159-19.988,12.212c-8.295,2.995-15.495,3.283-23.156,3.514-7.603.23-15.495.518-24.135,3.629-4.723,1.728-9.216,4.147-13.709,7.373-10.829,7.834-16.013,25.345-15.552,52.13-19.412-14.228-20.737-41.876-16.301-52.994,5.587-13.94-67.797-24.538-121.482-13.306-22.925,4.723,17.453,21.773,31.854,23.905,32.487,6.048,58.638,8.583,58.638,8.583-19.354,2.765-50.517-2.304-64.168-4.839-6.624,8.064,12.096,19.297,29.377,23.329,19.93,4.666,51.553,5.242,51.553,5.242-22.81,3.744-47.291-.23-54.606-1.613-5.703,12.903,42.51,25.287,85.538,22.004,1.44,22.407,6.279,45.736,10.195,56.853,4.551,14.285,12.154,20.564,17.741,23.329,6.394,3.168,13.479,3.456,20.506.922,8.871-3.226,16.935-10.887,22.753-21.658,11.232-17.972,21.37-32.257,40.321-39.112,18.951-6.912,35.886-2.477,56.046,4.09,11.348,4.493,22.522,5.184,31.335,1.958,7.027-2.534,12.269-7.373,15.149-13.882,2.534-5.703,4.32-15.38-1.44-29.262-4.032-11.175-15.38-32.142-28.686-50.229Zm12.557,86.46c-6.97,2.534-16.244,2.074-26.382-1.958-19.239-6.279-39.054-12.039-61-4.032-21.946,8.007-33.409,25.172-44.123,42.337-5.184,9.677-11.981,15.956-18.951,18.49-11.405,4.147-23.213-1.843-28.858-19.7-7.488-21.082-19.873-94.985,2.304-111.114,4.147-2.995,8.122-5.069,11.924-6.451,15.61-5.703,29.204-.576,47.291-7.143,18.087-6.567,25.23-19.239,40.84-24.884,3.802-1.382,8.179-2.362,13.306-2.707,27.303-1.901,65.378,62.671,73.154,83.638,7.085,17.223,1.901,29.377-9.504,33.524Z" fill="#26c2eb"/><path d="m386.847,378.423q-.058,0,0,0c-4.435,1.67-6.739,6.567-5.127,11.002,1.613,4.435,6.509,6.739,10.944,5.127h.058c4.435-1.613,6.739-6.567,5.127-11.002-1.67-4.435-6.567-6.739-11.002-5.127Z" fill="#26c2eb"/><path d="m381.375,363.447c4.435-1.613,6.739-6.567,5.127-11.002s-6.567-6.739-11.002-5.127h-.058c-4.435,1.613-6.739,6.567-5.069,11.002,1.613,4.435,6.509,6.739,11.002,5.127h0Z" fill="#26c2eb"/><path d="m365.65,368.573q-.058,0,0,0c-4.435,1.67-6.739,6.567-5.127,11.002,1.613,4.435,6.509,6.739,10.944,5.127h.058c4.435-1.613,6.739-6.567,5.127-11.002-1.67-4.493-6.567-6.797-11.002-5.127Z" fill="#26c2eb"/><path d="m396.697,357.226h0c-4.435,1.67-6.739,6.567-5.127,11.002,1.613,4.435,6.509,6.739,10.944,5.127h.058c4.435-1.613,6.739-6.567,5.127-11.002-1.613-4.435-6.509-6.739-11.002-5.127Z" fill="#26c2eb"/><path d="m314.672,390.98c-.173-.461-.518-.864-.979-1.037-.461-.23-.979-.23-1.44-.058l-11.52,4.205-4.205-11.52c-.173-.461-.518-.864-.979-1.037-.461-.23-.979-.23-1.44-.058l-4.608,1.67-4.723,1.728c-.461.173-.864.518-1.037.979-.23.461-.23.979-.058,1.44l4.205,11.52-11.52,4.205c-.461.173-.864.518-1.037.979-.23.461-.23.979-.058,1.44l3.398,9.331c.173.461.518.864.979,1.037.461.23.979.23,1.44.058l11.52-4.205,4.205,11.52c.173.461.518.864.979,1.037.461.23.979.23,1.44.058l4.723-1.728,4.608-1.67c.461-.173.864-.518,1.037-.979.23-.461.23-.979.058-1.44l-4.205-11.52,11.52-4.205c.461-.173.864-.518,1.037-.979.23-.461.23-.979.058-1.44l-3.398-9.331Z" fill="#26c2eb"/><path d="m265.25,324.508c13.652-1.21,30.759-5.357,48.155-11.693,17.396-6.336,33.179-14.112,44.411-22.004,14.112-9.85,19.757-18.951,16.82-27.015-2.938-8.122-13.133-11.463-30.241-9.907-13.652,1.21-30.759,5.357-48.155,11.693-17.396,6.336-33.179,14.112-44.411,22.004-14.112,9.85-19.757,18.951-16.82,27.015,2.995,8.064,13.133,11.405,30.241,9.907Zm33.467-52.129c34.791-12.672,65.666-15.38,69.064-6.106s-22.061,27.015-56.853,39.688c-34.791,12.672-65.666,15.38-69.064,6.163-3.341-9.331,22.061-27.073,56.853-39.745Z" fill="#26c2eb"/></svg>